<?xml version="1.0" standalone="no"?>
<!DOCTYPE svg PUBLIC "-//W3C//DTD SVG 20010904//EN"
 "http://www.w3.org/TR/2001/REC-SVG-20010904/DTD/svg10.dtd">
<svg version="1.0" xmlns="http://www.w3.org/2000/svg"
 width="1200.000000pt" height="630.000000pt" viewBox="0 0 1200.000000 630.000000"
 preserveAspectRatio="xMidYMid meet">
<metadata>
Created by potrace 1.16, written by Peter Selinger 2001-2019
</metadata>
<g transform="translate(0.000000,630.000000) scale(0.100000,-0.100000)"
fill="#000000" stroke="none">
<path d="M5903 6065 c-121 -33 -208 -105 -267 -222 -32 -64 -343 -735 -532
-1150 -213 -466 -1680 -3634 -1690 -3650 -13 -20 -23 -23 -79 -23 -235 0 -424
-239 -375 -475 17 -82 49 -141 108 -201 62 -61 138 -101 218 -114 83 -14 985
-13 1059 1 142 26 265 132 307 263 62 193 -27 402 -206 487 -33 16 -79 31
-103 35 -24 3 -43 10 -43 15 0 5 331 726 736 1602 797 1725 773 1673 808 1749
48 105 107 234 129 281 12 26 24 47 27 47 6 0 6 0 157 -330 44 -96 57 -123
807 -1747 405 -876 736 -1597 736 -1602 0 -5 -19 -12 -43 -15 -24 -4 -70 -19
-103 -35 -179 -85 -268 -294 -206 -487 42 -131 165 -237 307 -263 74 -14 976
-15 1059 -1 80 13 156 53 218 114 59 60 91 119 108 201 49 236 -140 475 -375
475 -56 0 -66 3 -79 23 -10 16 -1477 3184 -1690 3650 -189 415 -500 1086 -532
1150 -60 119 -147 190 -271 222 -70 18 -121 18 -190 0z"/>
</g>
</svg>
